<?xml version="1.0" encoding="UTF-8"?>
<!-- Generated by Pixelmator Pro 3.7 -->
<svg width="850" height="480" viewBox="0 0 850 480" xmlns="http://www.w3.org/2000/svg">
    <path id="Shape" fill="#0d3a4f" fill-rule="evenodd" stroke="none" d="M 219.285172 131.921082 C 229.245087 111.444763 234.988831 101.224976 238.474792 96 C 241.96077 90.775024 248.41304 82.19873 252.813187 76.94165 C 257.213348 71.684509 264.520538 63.895874 269.051422 59.633606 C 273.582275 55.371277 282.061768 48.324097 287.894684 43.973267 C 293.7276 39.622375 303.291229 33.340271 309.147186 30.013 C 315.003113 26.68573 324.382507 21.956787 329.990204 19.504272 C 335.597931 17.051758 345.690796 13.254272 352.418793 11.06543 C 359.146759 8.876526 370.242401 5.948547 377.075745 4.558716 C 383.909088 3.168884 395.125 1.503662 402 0.858215 C 409.813324 0.124695 421.623779 -0.079407 433.5 0.313904 C 445.43808 0.709229 456.677765 1.689636 463.740234 2.95166 C 469.922363 4.056335 479.407532 6.082397 484.81842 7.453979 C 490.229279 8.825562 499.346191 11.576233 505.078186 13.566528 C 510.810181 15.556824 520.450012 19.539551 526.5 22.416992 C 532.549988 25.294495 541.649475 30.221985 546.721008 33.367004 C 551.792603 36.512024 559.21759 41.566589 563.221008 44.599243 C 567.224426 47.631958 573.826477 53.10199 577.892212 56.754883 C 581.957947 60.407776 589.299561 67.9198 594.206909 73.448242 C 599.114319 78.976685 606.419128 88.450012 610.439941 94.5 C 614.460693 100.549988 619.281921 108.424988 621.153687 112 C 623.025513 115.575012 625.894165 121.525391 627.528503 125.223145 C 629.162842 128.920837 630.724976 131.941223 631 131.935181 C 631.275024 131.929077 632.654907 130.253662 634.066467 128.212036 C 635.478027 126.17041 639.25824 121.666687 642.46698 118.203735 C 645.67572 114.740845 652.170837 108.992737 656.900513 105.430237 C 661.630249 101.867737 670.224976 96.534485 676 93.578613 C 681.775024 90.622681 691 86.813232 696.5 85.113037 C 702 83.412903 713.924988 80.190186 723 77.951538 C 732.075012 75.712891 745.125 72.024353 752 69.754883 C 760.080322 67.087524 771.748291 61.929443 785 55.166565 C 796.275024 49.412415 809.099976 43.112549 813.5 41.166931 C 819.960571 38.310059 823.085815 37.544739 829.741272 37.189758 C 835.021545 36.908081 839.065186 37.198547 840.99585 37.998291 C 842.653198 38.684753 845.357117 40.781677 847.004578 42.65802 C 849.612793 45.628601 850 46.837524 850 52.010315 C 850 57.147827 849.373413 59.13739 845.36554 66.725525 C 842.816589 71.551514 839.044556 78.875671 836.983154 83.001465 C 834.921753 87.127319 831.886658 94.552307 830.238403 99.501465 C 828.590149 104.450684 826.496155 112.775024 825.585083 118 C 824.592651 123.691772 823.554932 138.122986 822.996338 154 C 822.283569 174.260864 821.570129 182.848022 819.966003 190.472839 C 818.812012 195.957886 816.325378 205.217163 814.440063 211.048981 C 812.554749 216.880798 808.823914 226.118011 806.149231 231.576141 C 803.474609 237.034271 797.98291 246.450012 793.945496 252.5 C 788.951599 259.983246 783.058105 267.016754 775.511414 274.5 C 769.410095 280.549988 760.836548 288.049438 756.459045 291.165405 C 752.081604 294.281403 743.325012 299.547058 737 302.866913 C 730.674988 306.186768 720.084045 310.71347 713.464539 312.92627 C 706.845093 315.139069 696.998169 317.698151 691.58252 318.613129 C 684.253662 319.851318 678.509583 320.129547 669.117981 319.701233 C 660.21698 319.295319 653.848816 318.393127 647.5 316.638641 C 642.549988 315.270721 637.825012 313.896942 637 313.585785 C 635.811768 313.137665 634.925293 315.34021 632.734985 324.182892 C 631.214233 330.322418 628.159119 339.880402 625.945862 345.422852 C 623.732666 350.965271 619.187012 360.294983 615.844421 366.155518 C 612.501892 372.016052 606.784851 380.791046 603.139954 385.655518 C 599.495056 390.519989 592.459961 398.581604 587.506409 403.570221 C 582.552917 408.558868 574.900024 415.496887 570.5 418.988068 C 566.099976 422.479248 558.224976 428.134583 553 431.555481 C 547.775024 434.976349 538.775024 440.383484 533 443.571289 C 527.224976 446.759094 518.456116 451.808563 513.51355 454.792358 C 508.571045 457.776123 500.471039 462.257446 495.51358 464.750824 C 490.556122 467.244202 482.674988 470.58197 478 472.168091 C 473.325012 473.754211 465.225006 475.983459 460 477.122009 C 452.494324 478.757507 445.986511 479.26886 429 479.557922 C 413.549255 479.820801 405.012329 479.520264 398.658417 478.489746 C 393.795532 477.70105 385.550598 475.920227 380.336334 474.53241 C 375.12204 473.144592 367.400757 470.631012 363.177917 468.946716 C 358.955048 467.26239 351.899994 463.924561 347.5 461.529236 C 343.100006 459.133942 334.702087 454.322479 328.837952 450.837067 C 322.973816 447.351685 314.224884 442.25 309.395874 439.5 C 304.566833 436.75 296.089752 431.298126 290.557922 427.384735 C 285.026062 423.471313 276.344025 416.58905 271.264465 412.09079 C 266.184937 407.592529 258.827301 400.219391 254.914154 395.706055 C 251.001022 391.192719 244.664108 382.817993 240.832138 377.09552 C 237.000168 371.373077 231.922516 362.823059 229.548492 358.09552 C 227.174454 353.367981 223.788147 345.450012 222.023361 340.5 C 220.258575 335.549988 217.76181 327.450012 216.475006 322.5 C 214.847916 316.240997 213.734055 313.623199 212.817673 313.904541 C 212.092957 314.127014 207.675003 315.387573 203 316.70578 C 197.363525 318.295105 190.53363 319.303619 182.726334 319.699493 C 175.680435 320.056732 167.587738 319.825714 162.572861 319.124176 C 157.963974 318.479431 150.662125 317.027649 146.346527 315.89801 C 142.030945 314.768372 134 312.019348 128.5 309.789093 C 123 307.558838 114.900002 303.792755 110.5 301.420013 C 106.099998 299.047272 99.726585 295.169586 96.336861 292.802948 C 92.947136 290.43634 86.48188 285.350006 81.969627 281.5 C 77.457375 277.649994 70.36071 270.450012 66.199265 265.5 C 62.037819 260.549988 56.214939 252.791656 53.259529 248.259277 C 50.304119 243.726868 45.683079 235.401855 42.990543 229.759277 C 40.298012 224.116669 36.726192 215.304688 35.053165 210.177124 C 33.380138 205.0495 31.108685 196.499512 30.005487 191.177124 C 28.902288 185.854675 27.570068 174.75 27.044994 166.5 C 26.519922 158.25 25.877386 144.974976 25.617138 137 C 25.326614 128.09729 24.369419 118.816711 23.137484 112.958252 C 22.033922 107.710327 19.81094 99.7995 18.197521 95.378601 C 16.584101 90.957764 11.829624 80.732788 7.632016 72.656555 C 0.909572 59.722412 0 57.336182 0 52.634094 C 0 48.756409 0.619241 46.366089 2.263197 43.897888 C 3.507955 42.029053 6.315379 39.624146 8.501917 38.553589 C 11.316165 37.17572 14.401783 36.636841 19.065258 36.708679 C 23.232651 36.772888 28.230247 37.706482 32.667522 39.249573 C 36.525467 40.591248 44.591026 44.323303 50.590984 47.543091 C 56.590942 50.762817 67.016243 56.192139 73.758316 59.608215 C 80.500381 63.024292 91.750381 67.645325 98.758316 69.877197 C 105.766243 72.10907 118.025002 75.53894 126 77.499146 C 133.975006 79.459412 145.449997 82.604675 151.5 84.488708 C 157.550003 86.372742 166.736221 89.979431 171.913818 92.503601 C 177.091415 95.027771 184.293762 99.083008 187.919022 101.51532 C 191.544281 103.947571 197.712616 108.860229 201.62645 112.432312 C 205.540268 116.004395 211.114594 121.850647 214.013824 125.424011 L 219.285172 131.921082 Z"/>
    <path id="path1" fill="#fcfaf6" fill-rule="evenodd" stroke="none" d="M 318.200775 276.934204 C 315.065338 276.89798 310.075562 276.21637 307.112335 275.419464 C 304.149109 274.622528 299.098663 272.570892 295.88913 270.860229 C 292.679596 269.149567 287.769684 265.335022 284.978241 262.383484 C 282.186798 259.431946 278.548706 254.12323 276.893585 250.586334 C 275.238495 247.049408 273.391144 241.179474 272.788391 237.542023 C 271.95813 232.531555 271.995667 229.231995 272.943176 223.929932 C 273.631073 220.08078 275.548737 214.220184 277.20462 210.906403 C 278.860535 207.592651 282.595215 202.320557 285.503876 199.190674 C 288.412537 196.060791 293.201599 192.05426 296.146179 190.287292 C 299.09079 188.520264 304.424988 186.327332 308 185.414063 C 312.676605 184.219421 316.971588 183.894165 323.310669 184.2547 C 330.845154 184.683228 333.183655 185.280823 339.455322 188.380493 C 344.590057 190.918213 348.431488 193.77887 352.265533 197.920105 C 355.277435 201.173279 358.680542 205.784668 359.828003 208.167542 C 360.975464 210.550385 362.608582 215.182037 363.457153 218.460114 C 364.305725 221.738159 365 227.156097 365 230.5 C 365 233.843903 364.310181 239.228149 363.467102 242.465027 C 362.623993 245.701904 360.711487 250.633972 359.217102 253.42514 C 357.722687 256.216309 354.209839 260.819489 351.410767 263.654449 C 348.611694 266.48941 343.661682 270.145538 340.410767 271.779175 C 337.159851 273.412842 332.115356 275.255859 329.200775 275.874725 C 326.286194 276.493622 321.336212 276.970398 318.200775 276.934204 Z M 530.039917 276.932495 C 526.442932 276.895386 521.474976 276.316895 519 275.646942 C 516.525024 274.97702 512.25 273.344696 509.5 272.019562 C 506.75 270.694427 501.908539 267.029999 498.741211 263.876343 C 495.22998 260.38028 491.82608 255.697327 490.019562 251.877472 C 488.390015 248.431732 486.534637 243.279633 485.896545 240.428345 C 485.246643 237.524323 484.952881 231.561859 485.228638 226.87207 C 485.532135 221.710297 486.565216 216.30484 487.922852 212.775238 C 489.133942 209.626587 492.056915 204.425903 494.418396 201.218079 C 496.801697 197.980591 501.111816 193.816406 504.105988 191.858582 C 507.072693 189.91864 511.525024 187.528992 514 186.548157 C 516.474976 185.567322 522.385986 184.533264 527.135498 184.250244 C 534.099609 183.835266 537.107666 184.141663 542.677002 185.833313 C 546.475342 186.987 552.279907 189.67395 555.575989 191.804382 C 558.872131 193.934753 563.480652 197.887817 565.817078 200.588928 C 568.153564 203.289978 571.368713 208.200012 572.961853 211.5 C 574.555054 214.799988 576.383789 220.521362 577.025696 224.214111 C 577.922302 229.372009 577.915039 232.575195 576.994263 238.033875 C 576.315369 242.058929 574.307495 248.114441 572.362915 252.001373 C 570.090576 256.543549 567.035461 260.594818 563.325562 263.985443 C 560.243042 266.802673 555.541321 270.212219 552.877319 271.562164 C 550.213257 272.91214 545.456482 274.687927 542.306702 275.508331 C 539.156921 276.328735 533.636841 276.969635 530.039917 276.932495 Z M 330.79715 263.523743 C 334.096344 263.281494 337.73407 262.173798 340.441772 260.587006 C 342.832855 259.18573 345.983154 256.6203 347.442413 254.886078 C 348.901672 253.151855 351.054688 249.880524 352.226929 247.616455 C 353.774658 244.627106 354.48175 241.058716 354.809387 234.583893 C 355.139648 228.056366 354.820984 224.273376 353.619781 220.462799 C 352.696991 217.535278 350.244904 213.287689 348.015808 210.75531 C 345.836029 208.278931 342.353241 205.445129 340.276276 204.458008 C 338.199341 203.470825 334.327179 202.453247 331.671509 202.196777 C 329.015839 201.940308 325.050354 202.267578 322.859344 202.924011 C 320.668304 203.580444 317.068695 205.750061 314.860138 207.7453 C 312.651611 209.740601 309.667358 213.651642 308.228424 216.436554 C 306.042786 220.666748 305.543915 223.167358 305.197083 231.631958 C 304.812073 241.027557 304.983337 242.212799 307.55365 247.940186 C 309.290924 251.81134 311.931091 255.529846 314.627747 257.903534 C 316.994049 259.98645 320.408356 262.190613 322.215057 262.801666 C 324.02179 263.41275 327.883728 263.737671 330.79715 263.523743 Z M 522.352478 263.504761 C 525.093201 263.259186 529.136963 261.937683 531.644592 260.468109 C 534.086426 259.037109 537.4198 256.022736 539.052002 253.769501 C 540.684265 251.516266 542.690308 247.414673 543.509827 244.654846 C 544.329407 241.89502 545 236.65036 545 233 C 545 229.34964 544.329407 224.10498 543.509827 221.345154 C 542.690308 218.585327 540.668762 214.462341 539.017578 212.182922 C 537.366333 209.903503 534.184814 206.827148 531.94751 205.346558 C 529.178772 203.514343 526.113525 202.508118 522.349731 202.195984 C 519.308289 201.943787 515.016479 202.27771 512.812317 202.93811 C 510.608154 203.59845 506.763397 206.020081 504.268433 208.319397 C 501.773468 210.618713 498.779877 214.459503 497.616058 216.854431 C 495.865295 220.457153 495.5 223.052185 495.5 231.88681 C 495.5 240.408936 495.903809 243.466797 497.5 247.03241 C 498.600006 249.489594 501.041168 253.216644 502.924835 255.314728 C 504.808502 257.412842 507.730591 259.843567 509.418365 260.716339 C 511.10614 261.589142 513.61499 262.671387 514.99353 263.121399 C 516.37207 263.571381 519.683594 263.743896 522.352478 263.504761 Z"/>
    <path id="path2" fill="#e2cab0" fill-rule="evenodd" stroke="none" d="M 424.5 398.908386 C 416.799988 398.859497 407.196289 398.221069 403.158417 397.489685 C 399.120544 396.75827 392.287903 394.931396 387.974731 393.429932 C 383.661591 391.928467 379.558197 390.344971 378.856079 389.911072 C 377.866547 389.299469 377.995697 388.662262 379.430511 387.076782 C 380.448547 385.951843 382.785461 384.144104 384.623627 383.05954 C 386.461823 381.975006 390.305145 380.392914 393.164398 379.543823 C 396.023621 378.694733 401.460419 378 405.246124 378 C 410.014252 378 413.62384 378.642944 416.993317 380.092468 C 419.668549 381.243317 422.624634 383.032715 423.562347 384.068909 C 425.226624 385.907898 425.334808 385.896088 428.094177 383.574219 C 429.648926 382.265961 432.995087 380.403473 435.53009 379.435364 C 438.470917 378.312256 442.738068 377.69809 447.31958 377.738556 C 452.184601 377.781494 456.404877 378.520935 460.407318 380.031677 C 463.656342 381.258026 467.908936 383.722473 469.857513 385.50824 C 473.400421 388.755066 473.400421 388.755066 469.450226 390.740448 C 467.277588 391.832397 463.234314 393.466522 460.465149 394.371826 C 457.695984 395.2771 451.621002 396.688171 446.965149 397.507538 C 441.911255 398.396942 432.858307 398.961456 424.5 398.908386 Z M 184.31076 263.764954 C 183.31485 264.260162 180.697952 264.332947 178.495438 263.926697 C 176.292938 263.520477 171.398315 261.950043 167.6185 260.43689 C 163.838684 258.923737 159.57869 256.681519 158.151855 255.454193 C 156.238892 253.808746 155.620026 252.403656 155.795273 250.10379 C 155.92598 248.388367 155.070786 245.098907 153.894836 242.793884 C 152.718903 240.488831 150.25238 236.329742 148.413681 233.551453 C 146.574982 230.773163 144.33049 225.596924 143.425919 222.048737 C 142.220596 217.320831 141.966156 213.720917 142.47345 208.572571 C 142.854172 204.708923 143.777679 199.771362 144.525681 197.60022 C 145.273697 195.429138 147.148926 192.407898 148.692856 190.886475 C 150.236786 189.36499 152.676971 187.834534 154.115479 187.485413 C 156.461472 186.916138 157.238251 187.553894 161.654648 193.675354 C 164.362686 197.428894 168.398392 203.424988 170.622864 207 C 172.847336 210.575012 176.32019 216.473572 178.340302 220.107941 C 182.013229 226.715851 182.013229 226.715851 179.999908 231.267303 C 178.892578 233.770599 177.734985 237.772034 177.42749 240.159393 C 177.093491 242.752472 177.464859 246.430481 178.349899 249.295074 C 179.164734 251.932373 181.106842 255.737244 182.665695 257.750336 C 184.224564 259.763428 185.639847 261.737671 185.81076 262.137543 C 185.981689 262.537415 185.306686 263.269745 184.31076 263.764954 Z M 666.996948 265 C 665.413574 265 663.853149 264.571381 663.529358 264.047516 C 663.205566 263.523621 664.516296 261.030853 666.442017 258.507996 C 668.367798 255.985107 670.518616 252.026245 671.22168 249.71048 C 671.924744 247.394714 672.432373 243.372284 672.349731 240.771729 C 672.26709 238.171204 671.230896 234.042725 670.047119 231.597382 C 667.894836 227.151306 667.894836 227.151306 670.875366 221.325653 C 672.514648 218.121552 675.955322 212.125 678.521301 208 C 681.087219 203.875 685.46106 197.430359 688.240906 193.67865 C 692.76001 187.579468 693.570679 186.925293 695.897583 187.499939 C 697.328918 187.853455 699.742554 189.324585 701.261292 190.769226 C 702.779968 192.213867 704.804993 195.87793 705.761292 198.911621 C 706.846313 202.353821 707.5 207.636658 707.5 212.963745 C 707.5 218.802582 706.928833 222.980072 705.692566 226.183838 C 704.698486 228.759949 702.047607 233.70993 699.801819 237.183838 C 697.555969 240.657715 695.324158 244.850006 694.842163 246.5 C 694.258118 248.499359 694.366699 250.260315 695.167664 251.77951 C 696.137573 253.619019 696.09259 254.323212 694.934753 255.427582 C 694.14563 256.180298 691.200867 257.942505 688.390747 259.343597 C 685.580688 260.74469 680.265259 262.590546 676.578735 263.445496 C 672.892151 264.300476 668.580383 265 666.996948 265 Z"/>
    <path id="path3" fill="#eddac2" fill-rule="evenodd" stroke="none" d="M 424.789429 462.866974 C 420.780243 462.793823 413.899994 462.358429 409.5 461.899414 C 405.100006 461.440399 397.899994 460.345673 393.5 459.466644 C 389.100006 458.587646 381.493408 456.533478 376.596497 454.901855 C 371.699554 453.270233 363.149567 449.575409 357.596497 446.691101 C 352.043427 443.806824 341.424988 437.912048 334 433.591644 C 326.575012 429.27124 316.519653 423.253387 311.654755 420.218689 C 306.789886 417.18396 298.765778 411.575806 293.823425 407.756104 C 288.881073 403.936371 281.69281 397.844788 277.849518 394.219238 C 274.006226 390.593658 268.043335 384.223633 264.598633 380.063629 C 261.153931 375.903625 256.520203 369.799988 254.301407 366.5 C 252.082611 363.200012 248.009888 356 245.250885 350.5 C 242.491898 345 238.879379 336.450012 237.223083 331.5 C 235.566788 326.549988 233.288406 318.225006 232.160004 313 C 231.031616 307.774994 229.644257 298.549988 229.076981 292.5 C 228.509705 286.450012 227.891663 277.575317 227.703552 272.778473 C 227.439972 266.057281 226.940491 263.591705 225.525772 262.028473 C 224.516113 260.912811 222.938217 260 222.019333 260 C 221.100449 260 219.432266 261.012512 218.312256 262.25 C 217.192261 263.487488 215.733154 266.733551 215.069794 269.46347 C 214.406448 272.19339 213.603088 279.028961 213.284561 284.653687 C 212.705429 294.880432 212.705429 294.880432 207.788055 296.995819 C 205.083511 298.159302 199.902557 299.843689 196.274841 300.738922 C 192.647125 301.634155 185.588715 302.396606 180.589493 302.433289 C 175.590271 302.469971 167.498962 301.915436 162.60881 301.200958 C 157.718674 300.48645 149.393661 298.524811 144.10881 296.841705 C 138.823975 295.15863 129.324997 291.138428 123 287.907959 C 116.675003 284.67749 107.449997 279.043121 102.5 275.387115 C 97.550003 271.73111 89.675003 264.833252 85 260.058533 C 80.324997 255.283813 73.894974 247.730072 70.71106 243.272461 C 67.527138 238.814819 62.687492 230.778595 59.95628 225.414124 C 57.225067 220.049683 53.455521 210.899445 51.579506 205.080261 C 49.703491 199.261108 47.453796 191.125 46.580185 187 C 45.59074 182.328064 44.61779 169.696106 43.999916 153.5 C 43.45438 139.200012 42.352036 122.669189 41.550266 116.764893 C 40.748497 110.860535 38.528656 101.356262 36.617287 95.644226 C 34.705921 89.93219 29.708202 78.402405 25.51125 70.022461 C 21.314297 61.642517 18.146793 54.519897 18.472355 54.194336 C 18.797915 53.868774 21.187319 54.148071 23.782141 54.815063 C 26.376965 55.482056 31.875 57.725586 36 59.80072 C 40.125 61.875793 49.575001 66.781128 57 70.701355 C 64.425003 74.621582 77.012024 80.392578 84.971161 83.525696 C 94.870193 87.422424 104.839256 90.426331 116.524094 93.033203 C 125.919075 95.12915 139.432053 98.734741 146.552933 101.045532 C 153.673828 103.356384 163.100006 106.997009 167.5 109.135925 C 171.899994 111.274841 178.520981 115.292725 182.213287 118.064575 C 185.905594 120.836426 191.454865 125.893311 194.545013 129.302124 C 197.635147 132.710938 202.105484 138.424988 204.479111 142 C 206.852722 145.575012 209.777267 150.39502 210.978088 152.711121 C 212.178909 155.027222 214.074463 161.552246 215.19043 167.211121 C 216.306396 172.869995 217.855453 178.512512 218.632782 179.75 C 219.484421 181.105835 221.039001 182 222.544495 182 C 224.170288 182 225.394684 181.214172 226.050156 179.75 C 226.604156 178.512512 227.913437 172.470764 228.959671 166.323975 C 230.005905 160.177185 231.849991 151.486084 233.057648 147.010437 C 234.265305 142.534851 238.082031 133.164063 241.539291 126.186462 C 244.996536 119.208923 250.363861 109.722351 253.466675 105.105225 C 256.569489 100.488098 261.721222 93.513062 264.915009 89.605225 C 268.108795 85.697327 274.96579 78.450012 280.152802 73.5 C 285.339783 68.549988 292.93988 61.937378 297.04184 58.805298 C 301.143829 55.673218 308.325012 50.832031 313 48.047119 C 317.674988 45.262268 325.225311 41.159607 329.778503 38.930237 C 334.331665 36.700806 342.837219 33.081177 348.679688 30.886658 C 354.522156 28.692139 364.530823 25.619873 370.921173 24.059387 C 377.311554 22.498901 388.381012 20.384705 395.52002 19.361084 C 404.11792 18.128296 414.239258 17.5 425.5 17.5 C 436.684265 17.5 446.947327 18.132629 455.5 19.349182 C 462.649994 20.366211 473.894745 22.553406 480.488312 24.209534 C 487.081879 25.865723 497.206879 29.035828 502.988312 31.254211 C 508.769745 33.472534 517.07196 37.070374 521.437744 39.249329 C 525.803467 41.428284 533.003479 45.453064 537.437744 48.193237 C 541.871948 50.93335 548.76123 55.620667 552.747192 58.609375 C 556.733154 61.598022 564.56897 68.421082 570.160156 73.771667 C 575.751343 79.122253 583.027893 86.875 586.330261 91 C 589.63269 95.125 594.696716 102.111328 597.58374 106.525146 C 600.470825 110.939026 605.302124 119.489014 608.320007 125.525146 C 611.337952 131.56134 614.980713 140.252014 616.414978 144.83783 C 617.849304 149.423645 619.926208 158.80658 621.030273 165.688782 C 622.134338 172.570984 623.495056 179.056519 624.054016 180.100952 C 624.704041 181.315491 626.146729 182 628.056641 182 C 630.197144 182 631.319763 181.362732 632.02063 179.75 C 632.55835 178.512512 633.881653 172.848755 634.961243 167.16394 C 636.381775 159.683838 637.907959 155.068604 640.484863 150.460632 C 642.443298 146.958618 645.662231 141.934875 647.637939 139.296692 C 649.613708 136.658508 653.76593 131.88324 656.865112 128.684937 C 659.964294 125.486694 665.432983 120.684082 669.0177 118.012512 C 672.602417 115.340942 678.677429 111.583679 682.5177 109.663025 C 686.357971 107.742432 693.895325 104.547241 699.267395 102.562622 C 704.639404 100.578003 714.764404 97.609131 721.767395 95.965027 C 728.770325 94.320923 739 91.819519 744.5 90.406372 C 750 88.993225 760.575012 85.37207 768 82.359375 C 775.424988 79.34668 789.375 72.77655 799 67.759094 C 808.625 62.741638 819.761475 57.517212 823.747681 56.149231 C 827.733948 54.781311 831.240479 53.907166 831.540039 54.206665 C 831.839539 54.506226 829.45636 59.869751 826.24408 66.125671 C 823.031799 72.381531 818.4328 82.413147 816.02417 88.418152 C 813.61554 94.423157 810.837219 102.726013 809.850159 106.868958 C 808.863098 111.011902 807.599243 119.82373 807.041565 126.450806 C 806.483826 133.077881 805.806213 146.825012 805.535706 157 C 805.265198 167.174988 804.355957 179.441467 803.515259 184.25885 C 802.674561 189.076172 800.594055 197.401184 798.891968 202.75885 C 797.189941 208.116455 794.451843 215.594025 792.807373 219.37561 C 791.162903 223.157196 787.861572 229.559357 785.47113 233.6026 C 783.080688 237.645874 778.43927 244.451843 775.156799 248.72699 C 771.874329 253.002136 766.33374 259.254242 762.84436 262.620544 C 759.35498 265.986847 753.560608 271.013336 749.967957 273.790527 C 746.375366 276.567719 740.00415 280.868896 735.809753 283.348694 C 731.615356 285.828491 725.730591 288.979431 722.732483 290.3508 C 719.734375 291.722168 713.3703 294.22464 708.590027 295.911835 C 703.809814 297.59906 695.759033 299.738007 690.699341 300.6651 C 685.639709 301.592163 677.450012 302.373077 672.5 302.400421 C 667.549988 302.427765 660.419556 301.879761 656.654602 301.182678 C 652.889648 300.485565 646.927185 298.761444 643.404602 297.351257 C 637 294.787323 637 294.787323 636.994202 287.643646 C 636.991028 283.714661 636.552002 277.799988 636.018555 274.5 C 635.485168 271.200012 634.290039 266.802826 633.362793 264.728516 C 632.265503 262.273773 630.801514 260.737305 629.169739 260.327759 C 627.303833 259.859436 626.208191 260.259613 624.886108 261.892334 C 623.909058 263.098969 622.880859 265.979309 622.601257 268.293091 C 622.321716 270.606903 621.847839 277.674988 621.548279 284 C 621.248718 290.325012 620.307495 299.549988 619.456726 304.5 C 618.605957 309.450012 616.792786 317.65625 615.427429 322.736115 C 614.062073 327.815948 611.462708 335.486664 609.651123 339.782135 C 607.839539 344.077576 604.384521 351.294647 601.973267 355.820038 C 599.562012 360.345428 594.810608 367.749695 591.414551 372.274017 C 588.018433 376.798309 582.274597 383.702148 578.650452 387.615875 C 575.026306 391.529602 568.334839 397.881439 563.780518 401.731079 C 559.226257 405.580688 550.775024 411.880249 545 415.730103 C 539.224976 419.579956 528.200012 426.314972 520.5 430.696777 C 512.799988 435.078583 502.853607 440.786713 498.396881 443.38147 C 493.940155 445.976257 486.11557 449.900574 481.008911 452.102173 C 475.902252 454.303772 467.173676 457.185059 461.612061 458.505035 C 456.050415 459.825043 447.130249 461.376404 441.789429 461.952515 C 436.448578 462.528625 428.798584 462.940155 424.789429 462.866974 Z M 430.65744 411.439148 C 436.794037 411.198578 445.158447 410.36203 449.245026 409.580139 C 453.331604 408.798248 460.235748 406.97876 464.587585 405.536865 C 468.939423 404.09494 476.549988 400.912506 481.5 398.464752 C 486.450012 396.016998 494.440155 391.088257 499.25589 387.511993 C 504.071625 383.93573 511.601929 377.579681 515.989929 373.387421 C 520.377869 369.19519 526.468201 362.501007 529.523926 358.511475 C 532.579651 354.521912 536.57373 348.461731 538.399536 345.044434 C 541.016785 340.145905 542.754089 338.237701 546.609619 336.026794 C 549.299316 334.484436 553.75 331.277039 556.5 328.899231 C 559.25 326.521454 563.009521 323.070282 564.854431 321.230011 C 568.208862 317.884033 568.208862 317.884033 571.728943 321.996429 C 574.454285 325.180389 575.841736 326.0401 577.874512 325.804413 C 579.853088 325.575012 580.573914 324.864532 580.799927 322.920959 C 580.964905 321.502472 580.155212 317.817108 579.000671 314.731262 C 577.724854 311.321442 575.54071 307.925903 573.432373 306.074768 C 571.524414 304.399536 568.835022 302.745697 567.455933 302.399597 C 566.076904 302.053467 562.044434 301.9552 558.494873 302.181213 C 553.342651 302.509277 551.179871 303.197479 547.770569 305.593628 C 545.226196 307.381897 543.5 309.384308 543.5 310.547546 C 543.5 312.114807 544.094727 312.444275 546.514526 312.21756 C 548.172485 312.062225 550.397522 312.57016 551.458984 313.346344 C 553.280273 314.678101 553.295776 314.899628 551.734863 317.281891 C 550.825134 318.670288 548.825134 320.685272 547.290405 321.759613 C 545.755676 322.833984 540.900024 325.066742 536.5 326.721344 C 532.099976 328.375946 523.325012 331.125 517 332.830353 C 510.674988 334.535706 501 336.823669 495.5 337.914703 C 490 339.005707 480.325012 340.587341 474 341.429413 C 467.674988 342.271454 455.524994 343.480408 447 344.115967 C 438.062531 344.782257 424.884277 345.003143 415.87439 344.637634 C 407.280304 344.289032 395.580292 343.538513 389.87439 342.969849 C 384.168488 342.401184 372.975006 340.820038 365 339.456177 C 357.024994 338.092316 345.774994 335.813721 340 334.392639 C 334.225006 332.971527 324.774994 330.27652 319 328.403717 C 313.225006 326.530914 306.74231 323.98645 304.594025 322.749329 C 302.44574 321.512207 299.745728 319.227386 298.594025 317.671967 C 296.538727 314.89624 296.535431 314.817993 298.415619 313.440613 C 299.469208 312.668793 301.719208 312.141418 303.415619 312.268646 C 305.887299 312.454041 306.5 312.112152 306.5 310.547546 C 306.5 309.388336 304.787598 307.391602 302.285065 305.632721 C 299.236053 303.489838 296.551788 302.544464 292.58139 302.215179 C 289.562622 301.964844 285.510101 302.056915 283.575775 302.4198 C 281.641479 302.782684 278.675903 304.243286 276.985596 305.665588 C 275.295288 307.087891 273.069611 309.903412 272.039642 311.922302 C 271.009674 313.941193 269.853394 317.264526 269.470154 319.307465 C 269.015045 321.733368 269.201996 323.538483 270.009094 324.510956 C 270.688782 325.329926 271.998474 326 272.919495 326 C 273.840546 326 276.334625 324.217529 278.461945 322.039001 C 282.329742 318.077972 282.329742 318.077972 289.414886 325.410706 C 293.311707 329.443695 299.062744 334.180115 302.194946 335.936096 C 307.107452 338.690125 308.432526 340.117493 311.839264 346.324707 C 314.011383 350.28244 317.877045 356.298828 320.429565 359.694458 C 322.982086 363.090088 328.542175 369.113098 332.785278 373.078949 C 337.028381 377.0448 343.649994 382.512512 347.5 385.229431 C 351.350006 387.94635 357.648682 392.015991 361.49707 394.273041 C 365.345459 396.530121 372.22113 399.896301 376.776337 401.753418 C 381.331543 403.610565 389.36319 406.222015 394.624481 407.556641 C 399.885742 408.891266 407.635071 410.409241 411.845184 410.929901 C 416.055328 411.450531 424.520844 411.679718 430.65744 411.439148 Z M 404.973145 300.032257 C 406.474426 299.630981 407.885834 298.260986 408.450623 296.65683 C 409.215851 294.483429 409.020813 293.581757 407.450623 292.033722 C 406.377777 290.976044 403.359558 289.20047 400.743469 288.088074 C 397.795349 286.834442 395.54364 285.092499 394.820892 283.506256 C 393.885956 281.454315 393.96402 280.298676 395.2146 277.676147 C 396.072479 275.877167 398.466339 272.919739 400.534271 271.104065 C 402.602203 269.288391 406.365448 266.880096 408.897064 265.752289 C 412.023865 264.359344 416.420105 263.553009 422.60553 263.237915 C 429.16452 262.903809 433.219696 263.219238 437.10553 264.365845 C 440.072479 265.241333 444.75 267.669067 447.5 269.760834 C 450.25 271.85257 453.399994 275.236053 454.5 277.279663 C 456.338715 280.695679 456.37677 281.21579 454.971802 283.729584 C 454.048798 285.381012 451.76297 287.084717 449.200073 288.031433 C 446.86618 288.893555 443.976074 290.579468 442.777679 291.777893 C 440.970093 293.58548 440.763977 294.429169 441.568329 296.728424 C 442.421204 299.16629 443.115479 299.537018 447.334534 299.807465 C 450.681732 300.022034 453.457825 299.472687 456.521606 297.989532 C 458.936371 296.820557 462.281891 294.304047 463.956055 292.397278 C 466.601685 289.384094 467 288.169342 467 283.114441 C 467 279.915649 466.483368 275.768799 465.851929 273.899231 C 465.22052 272.029663 463.43869 268.748566 461.892365 266.607941 C 460.346008 264.467316 456.509155 260.792358 453.365997 258.441376 C 450.222839 256.090393 444.80481 253.232483 441.325958 252.090454 C 437.847107 250.948425 431.963074 249.743866 428.250366 249.413635 C 423.841064 249.021454 419.028625 249.338226 414.373901 250.326996 C 410.454559 251.159546 404.925903 253.017334 402.088013 254.455414 C 399.250092 255.893463 395.170013 258.658508 393.021118 260.599884 C 390.872223 262.54129 387.906342 266.19046 386.430267 268.709198 C 384.557312 271.905151 383.590302 275.234985 383.229401 279.731018 C 382.853485 284.414154 383.143799 287.078339 384.292572 289.487305 C 385.161713 291.309967 387.508209 294.048584 389.506989 295.57312 C 391.505768 297.097656 395.234772 298.876617 397.793701 299.526337 C 400.3526 300.176086 403.583374 300.403748 404.973145 300.032257 Z M 318.590027 290.890442 C 323.710297 290.959778 329.515472 290.274841 334.403992 289.024567 C 338.65213 287.938049 344.911621 285.575653 348.313965 283.77478 C 351.853027 281.90152 357.752228 277.291138 362.100555 273.000244 C 367.765472 267.410065 370.626648 263.589996 373.33551 258 C 375.334442 253.875 377.651703 247.817963 378.484955 244.539886 C 379.318237 241.261841 380 234.69632 380 229.94986 C 380 224.628998 379.242523 218.358276 378.024567 213.596008 C 376.938049 209.347839 374.6091 203.17041 372.849121 199.868286 C 371.089111 196.566223 366.854004 190.857483 363.437775 187.182251 C 360.021545 183.507019 354.696686 178.980286 351.604767 177.122803 C 348.512848 175.265381 342.949402 172.639465 339.241547 171.287537 C 334.793976 169.665894 329.398254 168.641052 323.384583 168.275818 C 316.844147 167.878601 312.23175 168.182312 307.056732 169.351013 C 303.089905 170.246826 296.16684 172.868896 291.67215 175.177917 C 285.715759 178.237793 281.463593 181.426331 275.989349 186.938049 C 271.115479 191.845215 267.175842 196.989868 264.767731 201.592224 C 262.726715 205.49292 260.358887 211.342926 259.50592 214.592194 C 258.652924 217.841492 257.69693 223.649994 257.381439 227.5 C 257.004547 232.099792 257.340881 237.006012 258.362366 241.808624 C 259.217346 245.828369 261.480255 252.367737 263.391113 256.340546 C 265.428406 260.576233 269.388458 266.317322 272.965607 270.221161 C 276.32074 273.88269 281.757538 278.675934 285.047363 280.872803 C 288.337219 283.069672 293.609924 285.836426 296.764465 287.021118 C 299.919006 288.205811 304.299988 289.536407 306.5 289.977997 C 308.700012 290.419586 314.140503 290.83017 318.590027 290.890442 Z M 530.590027 290.944946 C 535.546997 290.978668 541.671387 290.234955 546.403992 289.024567 C 550.652161 287.938049 556.849304 285.598602 560.175476 283.825775 C 563.501648 282.052948 569.435364 277.599121 573.361572 273.928436 C 577.28772 270.257721 582.199402 264.384674 584.276489 260.877197 C 586.353516 257.369751 588.962524 251.575012 590.074219 248 C 591.185913 244.424988 592.343018 238.125 592.645569 234 C 593.010803 229.019562 592.665161 223.980438 591.61676 219 C 590.748413 214.875 588.154602 207.680603 585.852783 203.01239 C 582.572083 196.359009 579.920715 192.786377 573.583801 186.480469 C 567.61145 180.537354 563.541016 177.476074 558 174.760315 C 553.875 172.738525 547.575012 170.397034 544 169.556946 C 540.424988 168.716919 534.125 168.029541 530 168.029541 C 525.875 168.029541 519.598816 168.713379 516.052917 169.549133 C 512.506958 170.384949 506.845184 172.427795 503.4711 174.088867 C 500.097046 175.749878 494.601898 179.321533 491.259705 182.025818 C 487.761841 184.856079 483.102692 190.05304 480.281097 194.271667 C 477.585083 198.302551 474.281403 204.952942 472.939636 209.050293 C 470.83371 215.480927 470.503601 218.34671 470.526215 230 C 470.551208 242.86087 470.7052 243.878754 473.779022 251.5 C 475.553619 255.899994 479.237488 262.5177 481.965393 266.206024 C 484.693298 269.894348 489.489838 274.924957 492.62442 277.385162 C 495.758972 279.845367 500.474091 283.028717 503.102417 284.459229 C 505.730743 285.88974 511.17041 287.921844 515.190613 288.975006 C 519.327026 290.058655 526.011841 290.913788 530.590027 290.944946 Z M 197.113632 265.954895 C 199.715378 265.987366 201.45871 265.268555 203.339355 263.387909 C 204.775986 261.951294 206.246445 259.203278 206.607025 257.28125 C 206.96759 255.359192 206.986374 251.143738 206.648758 247.913574 C 206.311127 244.68338 205.089905 239.218903 203.934906 235.770264 C 202.779922 232.321625 200.13681 225.863342 198.061325 221.418549 C 195.98584 216.973755 191.435135 208.456726 187.948639 202.491882 C 184.462158 196.526978 179.068222 188.238647 175.962112 184.073303 C 172.856018 179.907959 167.291702 173.253662 163.596985 169.28595 C 159.902267 165.318237 153.418976 159.190369 149.189667 155.668457 C 144.960342 152.146545 137 146.324036 131.5 142.729553 C 126 139.13501 116.550003 133.438171 110.5 130.069763 C 104.449997 126.701416 94.916992 121.706665 89.315529 118.970276 C 83.714073 116.233887 76.858215 113.470398 74.080284 112.829163 C 69.595825 111.794067 68.803612 111.867737 67.014755 113.486633 C 65.906639 114.489502 65 116.093628 65 117.051392 C 65 118.009155 66.498299 120.108337 68.329559 121.716187 C 70.160812 123.324097 76.011726 126.965271 81.331589 129.807739 C 86.651451 132.650208 95.615646 137.76355 101.252029 141.170715 C 106.888412 144.577942 115.099998 149.751282 119.5 152.667175 C 123.900002 155.583008 131.392563 161.463257 136.150146 165.734375 C 144.800278 173.5 144.800278 173.5 139.859818 177.862854 C 137.142563 180.26239 133.808746 184.417297 132.45134 187.096008 C 131.093933 189.774719 129.312088 194.543518 128.491669 197.693298 C 127.671249 200.843079 127 206.381104 127 210 C 127 213.618896 127.678421 219.184448 128.507614 222.36792 C 129.336807 225.551392 131.170578 230.598267 132.582672 233.583191 C 133.994781 236.568115 136.921768 241.251617 139.087112 243.990997 C 141.252457 246.730347 144.852615 249.90448 147.087463 251.044617 C 149.322327 252.184753 151.88208 252.976776 152.775818 252.804657 C 153.669556 252.632538 155.32312 253.402466 156.450409 254.515594 C 157.577682 255.628754 161.649994 257.939331 165.5 259.650238 C 169.350006 261.361145 175.179245 263.315704 178.453873 263.993713 C 182.307922 264.791687 184.953049 264.891327 185.953873 264.276276 C 186.97612 263.648071 188.51651 263.763855 190.5 264.61795 C 192.149994 265.328461 195.126129 265.930084 197.113632 265.954895 Z M 652.950684 266 C 654.556213 266 657.053589 265.549927 658.500366 264.999847 C 660.264404 264.329163 661.75647 264.334473 663.029785 265.01593 C 664.374023 265.735352 667.175659 265.568024 672.621948 264.443054 C 676.853333 263.569031 682.63092 261.987579 685.46106 260.92868 C 688.29126 259.869781 692.039246 257.946594 693.789978 256.654938 C 695.54071 255.363281 696.733215 254.066528 696.439941 253.773285 C 696.146667 253.480011 697.572144 252.927643 699.607605 252.545776 C 702.282166 252.044037 704.862854 250.277496 708.913452 246.175751 C 711.996155 243.054077 715.829529 237.799988 717.432007 234.5 C 719.034424 231.200012 720.935791 226.024994 721.657166 223 C 722.37854 219.975006 722.975769 214.414948 722.984375 210.644348 C 722.992981 206.873718 722.287292 201.023743 721.416199 197.644348 C 720.545105 194.264954 718.660461 189.338379 717.228149 186.696472 C 715.795776 184.054504 712.972229 180.400757 710.953552 178.576965 C 708.934875 176.753235 706.656982 175.036194 705.891602 174.761292 C 704.962708 174.427734 706.554993 172.382385 710.680115 168.610107 C 714.079163 165.501831 718.739502 161.388611 721.036438 159.469543 C 723.333374 157.550537 732.767883 151.276672 742.002014 145.52771 C 751.236084 139.778748 763.450745 132.54718 769.14563 129.457581 C 774.840515 126.367981 780.533325 122.83252 781.796265 121.601013 C 783.059265 120.369568 784.331665 118.447632 784.623962 117.330078 C 784.937988 116.129211 784.436829 114.579651 783.39856 113.541443 C 782.104065 112.246948 780.633301 111.919983 777.808899 112.298828 C 775.700745 112.581543 768.287415 115.562744 761.334839 118.923706 C 754.382202 122.284607 742.80011 128.369141 735.596863 132.444763 C 728.393616 136.520447 718.268982 142.782288 713.097778 146.359985 C 707.926575 149.937683 700.575012 155.658813 696.760986 159.073608 C 692.94696 162.488342 686.438049 169.15625 682.296692 173.891113 C 678.155334 178.626038 671.484802 187.450012 667.473328 193.5 C 663.461914 199.549988 657.702698 209.450012 654.675171 215.5 C 651.647644 221.549988 647.894714 230.100006 646.335266 234.5 C 644.039673 240.977295 643.5 244.180634 643.5 251.329803 C 643.5 260.037567 643.545105 260.199951 646.765747 263.079803 C 648.794678 264.893982 651.137146 266 652.950684 266 Z M 261.552124 172 C 262.735779 172 265.087952 170.987488 266.779175 169.75 C 268.470398 168.512512 272.876038 164.931885 276.569427 161.79303 C 281.675415 157.453796 285.331177 155.345642 291.824005 152.996277 C 296.520599 151.296814 305.097382 149.174072 310.883545 148.278992 C 319.517792 146.94342 322.785645 146.853027 329.111359 147.775024 C 333.350494 148.392883 339.606537 150.071716 343.013672 151.505737 C 347.334106 153.324219 350.09491 153.918396 352.138123 153.469666 C 353.74942 153.115784 355.69458 151.852783 356.460693 150.663086 C 357.248596 149.439575 357.617706 147.306152 357.310516 145.751465 C 357.01181 144.239807 355.281616 141.698425 353.465668 140.104004 C 351.649719 138.509583 347.611908 136.250183 344.492737 135.083191 C 341.373596 133.916138 335.423401 132.455872 331.270081 131.838196 C 326.978638 131.19989 319.57019 130.978455 314.109283 131.325317 C 308.824188 131.66095 301.137329 132.879395 297.027374 134.032959 C 292.917419 135.186584 285.954132 138.003662 281.553375 140.293152 C 276.611603 142.864136 271.206726 146.758667 267.418671 150.477966 C 264.045349 153.7901 260.321136 158.394592 259.14267 160.710144 C 257.964203 163.025757 257 165.973267 257 167.260132 C 257 168.547058 257.540009 170.140015 258.200012 170.799988 C 258.859985 171.460022 260.368439 172 261.552124 172 Z M 589.215698 172 C 591.246887 172 592.357727 171.309021 593.161133 169.545654 C 594.095398 167.495178 593.83606 166.185242 591.584961 161.584106 C 589.871521 158.081909 586.524536 153.908875 582.392029 150.122131 C 578.81781 146.847046 572.417664 142.359131 568.169373 140.148926 C 563.921143 137.938721 557.082581 135.171753 552.972656 134.000122 C 548.817505 132.815613 540.94342 131.612671 535.236389 131.290588 C 529.240784 130.952271 522.076721 131.189697 518.00824 131.861572 C 514.177734 132.494141 508.44632 133.981018 505.27182 135.165649 C 502.097321 136.350342 498.037506 138.77771 496.25 140.559814 C 493.768433 143.033875 493 144.663269 493 147.45105 C 493 150.717468 493.390625 151.265259 496.708191 152.651428 C 500.278687 154.143311 500.78894 154.076416 510.449799 150.850403 C 519.429321 147.851929 521.587036 147.510254 530.991577 147.597595 C 538.161804 147.664124 544.15979 148.373474 549.872803 149.830444 C 554.477783 151.004883 560.552795 153.02478 563.372803 154.319031 C 566.192749 155.613342 571.15741 159.108521 574.405396 162.086182 C 577.65332 165.063782 581.678284 168.512512 583.34967 169.75 C 585.021057 170.987488 587.660767 172 589.215698 172 Z"/>
</svg>
