<?xml version="1.0" encoding="UTF-8"?>
<!-- Generated by Pixelmator Pro 3.7 -->
<svg width="830" height="172" viewBox="0 0 830 172" xmlns="http://www.w3.org/2000/svg">
    <path id="Shape-copy" fill="#e1e7ef" fill-rule="evenodd" stroke="none" d="M 227 171.471954 C 222.324997 171.705826 216.321884 171.501801 213.659744 171.01857 C 210.997604 170.535339 205.757446 169.209915 202.014954 168.073151 C 198.272446 166.936401 192.800568 164.39679 189.855194 162.42955 C 186.909836 160.462311 182.567581 156.973389 180.20575 154.676376 C 177.843903 152.379364 174.11937 147.750153 171.928986 144.389221 C 169.738617 141.02829 167.053619 135.738068 165.962341 132.633179 C 164.871063 129.528275 163.492126 123.503128 162.898056 119.243958 C 162.293457 114.909348 162.123169 108.198059 162.511261 104 C 162.892609 99.875 164.278763 93.089714 165.591614 88.921593 C 166.904449 84.753464 169.712433 78.678467 171.831573 75.421593 C 173.950699 72.164719 178.337891 66.88401 181.580887 63.686699 C 185.191208 60.12722 190.195541 56.540512 194.488617 54.435471 C 198.344879 52.544609 204.520065 50.262733 208.211243 49.364639 C 213.393219 48.103828 217.836609 47.853523 227.711243 48.26619 C 237.227173 48.663864 242.092499 49.359116 246.722778 50.982933 C 250.145325 52.183189 255.545288 54.850807 258.722778 56.910973 C 261.900238 58.97113 266.975006 63.338875 270 66.617073 C 273.024994 69.895271 276.930634 75.263206 278.679199 78.54583 C 280.427734 81.828453 282.790253 87.876984 283.929199 91.987015 C 285.453522 97.487801 285.99588 102.367905 285.984375 110.479904 C 285.9758 116.540955 285.351563 124.123245 284.597198 127.329437 C 283.842834 130.535614 281.578003 136.49263 279.564209 140.567245 C 277.082947 145.587738 273.840485 150.017731 269.504547 154.311218 C 265.800385 157.979111 260.407623 162.016602 256.697144 163.899933 C 253.172119 165.689148 246.960693 168.029129 242.893997 169.099899 C 238.827301 170.170654 231.675003 171.238083 227 171.471954 Z M 557.566345 171.934189 C 554.779846 171.897995 550.035889 171.206223 547.024231 170.396912 C 544.012573 169.587601 539.71167 167.849014 537.466736 166.533371 C 535.221741 165.217728 531.458008 162.050812 529.102905 159.495789 C 526.747742 156.940765 523.759766 152.521484 522.462891 149.67514 C 521.166016 146.828812 519.634766 141.574997 519.060059 138 C 518.462952 134.285706 518.011841 114.709229 518.007568 92.321426 C 518.000916 58.031212 518.196045 52.946785 519.571411 51.571426 C 520.836365 50.306473 523.640381 50 533.948975 50 C 543.109436 50 547.056396 50.363052 547.813538 51.275307 C 548.50647 52.110252 548.980347 66.181061 549.185974 92.025307 C 549.494263 130.77771 549.541687 131.584656 551.779541 136.126694 C 553.454956 139.527359 555.247192 141.382294 558.542908 143.126694 C 561.901855 144.904602 564.465881 145.466263 568.763367 145.365509 C 571.918518 145.291534 577.029358 144.268448 580.120789 143.091995 C 583.21228 141.915527 587.276672 139.462158 589.152832 137.640045 C 591.028992 135.817932 593.19812 132.566025 593.973083 130.413559 C 595.06073 127.392601 595.465637 118.06868 595.748474 89.533241 C 595.987854 65.384262 596.484192 52.121536 597.179871 51.283241 C 597.944458 50.361969 601.833557 50 610.967468 50 C 622.022888 50 623.906921 50.239632 625.345032 51.828743 C 626.843506 53.484589 627 58.953346 627 109.673752 C 627 162.671417 626.901428 165.779205 625.171265 167.345016 C 623.700806 168.675766 621.167847 169 612.242676 169 C 603.485291 169 600.811218 168.668381 599.571411 167.428574 C 598.6875 166.544678 598 164.174103 598 162.010361 C 598 159.894623 597.73877 157.482803 597.419495 156.650742 C 596.968201 155.474716 595.491577 156.223633 590.787048 160.014587 C 587.458496 162.696762 582.37854 166.00705 579.498291 167.370789 C 576.618103 168.734512 571.64502 170.333984 568.447083 170.92514 C 565.249146 171.516312 560.352844 171.970383 557.566345 171.934189 Z M 115.5 104.5 C 89.211899 104.028641 84.351875 103.579597 83.807541 102.722832 C 83.380234 102.050278 83.023735 97.532913 83.015312 92.684258 C 83.006889 87.835602 83.465836 82.9981 84.035187 81.934258 C 85.020813 80.09259 86.411163 80 113.080635 80 C 141.090912 80 141.090912 80 143.545456 82.454544 C 146 84.909088 146 84.909088 146 119.780228 C 146 154.651367 146 154.651367 143.75 156.717102 C 142.512497 157.853256 138.722885 160.170319 135.328629 161.866119 C 131.934372 163.56192 125.933289 165.842819 121.992859 166.934769 C 118.052429 168.026703 110.479546 169.338348 105.164223 169.849518 C 99.8489 170.360687 88.974998 170.782211 81 170.786255 C 70.104904 170.791779 64.511086 170.315018 58.5 168.86853 C 54.099998 167.809738 46.900002 165.156448 42.5 162.972321 C 38.099998 160.788208 31.89473 156.766846 28.710518 154.035995 C 25.526299 151.30513 20.883112 146.692368 18.392319 143.7854 C 15.901527 140.878433 11.858685 134.449997 9.408226 129.5 C 6.957766 124.550003 3.950954 116.449997 2.726422 111.5 C 0.933044 104.250519 0.5 99.637352 0.5 87.782181 C 0.5 75.761307 0.913888 71.455086 2.758676 64.282181 C 4.000948 59.451981 6.844829 51.675003 9.078411 47 C 11.311996 42.324997 15.470592 35.416809 18.319736 31.648483 C 21.16888 27.880142 26.757881 22.167831 30.739738 18.954453 C 34.721596 15.741089 40.796597 11.76857 44.239738 10.126633 C 47.682884 8.484711 53.875 6.176559 58 4.997391 C 63.177383 3.51741 69.675697 2.674652 78.983841 2.276001 C 86.767975 1.942627 95.856155 2.162094 100.483841 2.795181 C 104.892731 3.398346 111.425003 4.855804 115 6.033997 C 118.574997 7.212189 124.295837 9.501556 127.712982 11.121506 C 131.130142 12.74144 135.292633 15.216797 136.962997 16.622314 C 139.026215 18.358414 140 20.083801 140 22.003448 C 140 23.557571 138.625381 28.428879 136.945297 32.828568 C 135.265228 37.228256 133.299683 41.054764 132.577438 41.331909 C 131.855194 41.609055 127.997955 40.275497 124.005768 38.368423 C 120.013611 36.461349 113.316635 33.736252 109.123634 32.312637 C 103.756783 30.490463 98.539757 29.571716 91.5 29.209015 C 85.808479 28.915771 78.524284 29.200806 74.593353 29.870575 C 70.794693 30.517807 64.719696 32.463318 61.093353 34.193924 C 57.069756 36.11412 52.316055 39.524338 48.896542 42.94371 C 45.244873 46.595215 42.042866 51.151138 39.703785 56.02346 C 37.699875 60.197617 35.363682 67.334053 34.41468 72.180229 C 33.144154 78.668304 32.85508 83.7192 33.270042 92.180229 C 33.683907 100.618935 34.466942 105.340431 36.3466 110.731094 C 37.733364 114.708191 40.520123 120.451225 42.539394 123.493385 C 44.558662 126.535545 48.075867 130.649506 50.355396 132.635529 C 52.63493 134.621552 57.730911 137.800964 61.679794 139.700912 C 65.628685 141.600861 71.703682 143.638412 75.179794 144.228806 C 78.655907 144.819199 86.224998 145.060028 92 144.763977 C 98.655884 144.422775 104.979599 143.434875 109.272881 142.065613 C 116.045761 139.905502 116.045761 139.905502 115.772881 122.202751 L 115.5 104.5 Z M 336 139.970245 L 395.5 140.5 L 395.780701 153.360535 C 395.969025 161.989258 395.681946 166.678299 394.908264 167.61055 C 393.955902 168.758072 386.245636 168.994705 350.627563 168.969589 C 323.199524 168.950256 306.862946 168.568146 305.75 167.919907 C 304.106476 166.962646 304 162.048019 304 87.150307 C 304 26.455627 304.286743 7.113266 305.200012 6.199997 C 306.015686 5.384308 310.755554 5 320 5 C 329.244446 5 333.984314 5.384308 334.799988 6.199997 C 335.709198 7.109192 336 23.463364 336 73.68512 L 336 139.970245 Z M 443 140 C 493.755554 140 501.921265 140.321274 502.799988 141.199997 C 503.601074 142.001099 504 146.422226 504 154.5 C 504 162.577774 503.601074 166.998901 502.799988 167.800003 C 501.902954 168.697052 490.466675 169 457.5 169 C 424.533325 169 413.097046 168.697052 412.200012 167.800003 C 411.286774 166.886765 411 147.577774 411 87 C 411 26.422226 411.286774 7.113235 412.200012 6.199997 C 413.015686 5.384308 417.755554 5 427 5 C 436.244446 5 440.984314 5.384308 441.799988 6.199997 C 442.709198 7.109207 443 23.46666 443 73.699997 L 443 140 Z M 735.640686 127.923576 C 772.598633 35.503326 784.15448 7.84552 785.164185 6.835815 C 786.786072 5.213898 788.791748 5 802.377563 5 C 814.0354 5 818.025024 5.325195 818.87085 6.344376 C 819.587769 7.208237 821.478027 36.191696 824.159363 87.432739 C 827.735107 155.767929 828.129517 167.307159 826.916077 168.08847 C 826.137207 168.589935 819.424988 168.88768 812 168.750122 C 798.5 168.5 798.5 168.5 797.745911 162.5 C 797.331116 159.199997 796.300781 136.25 795.456177 111.5 C 794.611572 86.75 793.667358 63.59166 793.357849 60.037025 C 792.795227 53.574059 792.795227 53.574059 788.423645 64.037025 C 786.019287 69.791664 779.603821 85.75 774.166992 99.5 C 768.730164 113.25 760.740784 133.5 756.41272 144.5 C 752.084717 155.5 747.541748 165.512497 746.317261 166.75 C 744.333252 168.755066 743.101318 169 735 169 C 726.895142 169 725.668945 168.755966 723.694885 166.75 C 722.390991 165.425034 712.439941 141.688324 699.490356 109.014076 C 677.5 53.528152 677.5 53.528152 676.740967 64.514076 C 676.323547 70.556335 675.262512 95.974998 674.38324 121 C 673.442749 147.766632 672.366699 167.014648 671.769775 167.75 C 671.057739 168.627151 667.137756 168.995438 658.627563 168.98468 C 651.957397 168.976273 645.866211 168.568146 645.091553 168.077744 C 643.885254 167.314072 644.067444 158.383286 646.36145 105.843063 C 647.834534 72.104378 649.457703 36.248993 649.968445 26.164413 C 650.537292 14.934219 651.352051 7.280731 652.071045 6.414413 C 652.988708 5.308685 656.562927 5 668.44812 5 C 682.93396 5 683.749146 5.106171 685.723145 7.25 C 686.86261 8.487503 694.384033 25.805252 702.4375 45.733902 C 710.490906 65.662552 721.256226 92.307854 726.360413 104.945686 L 735.640686 127.923576 Z M 224.571854 146.956116 C 228.664688 146.981506 233.70488 146.297699 236.536682 145.332794 C 239.609055 144.285934 243.156799 141.938446 246.071548 139.023682 C 249.012573 136.082657 251.569611 132.204926 253.050018 128.440887 C 255.057312 123.337219 255.386597 120.738449 255.386597 110 C 255.386597 99.434731 255.042053 96.626305 253.160797 91.855179 C 251.936615 88.750526 249.627014 84.404694 248.02832 82.197777 C 246.067825 79.491417 242.994873 77.138206 238.588501 74.968956 C 232.398544 71.921646 231.585632 71.775169 223.112015 72.180298 C 215.351334 72.551346 213.529358 73.002388 209.33432 75.591064 C 206.471695 77.357544 202.980606 80.802292 200.774643 84.037117 C 198.725693 87.041702 196.363205 92.182045 195.524643 95.460098 C 194.686096 98.738152 194 105.281105 194 110 C 194 114.718887 194.697418 121.257401 195.549835 124.530014 C 196.402237 127.802628 198.465958 132.60939 200.135864 135.211716 C 201.805771 137.814041 204.767868 140.929489 206.718307 142.134918 C 208.668747 143.340363 211.892532 144.908386 213.882278 145.619415 C 215.872025 146.33046 220.682343 146.931961 224.571854 146.956116 Z"/>
</svg>
