<svg xmlns="http://www.w3.org/2000/svg" viewBox="0 0 240 240" width="512" height="512">
  <defs>
    <radialGradient id="face" cx="50%" cy="40%" r="60%">
      <stop offset="0%" stop-color="#B8F0FF"/>
      <stop offset="100%" stop-color="#6FD1E8"/>
    </radialGradient>
    <linearGradient id="ear" x1="0" x2="1" y1="0" y2="1">
      <stop offset="0%" stop-color="#9BE5C2"/>
      <stop offset="100%" stop-color="#5EC29D"/>
    </linearGradient>
  </defs>
  <circle cx="120" cy="120" r="84" fill="url(#face)" stroke="#1B4D5E" stroke-width="4"/>
  <path d="M36,110 C18,96 18,144 36,130 L56,120 Z" fill="url(#ear)" stroke="#1B4D5E" stroke-width="4"/>
  <path d="M204,110 C222,96 222,144 204,130 L184,120 Z" fill="url(#ear)" stroke="#1B4D5E" stroke-width="4"/>
  <polygon points="120,70 132,86 120,102 108,86" fill="#FFD166" stroke="#C77D02" stroke-width="3"/>
  <ellipse cx="95" cy="115" rx="16" ry="12" fill="#fff" stroke="#1B4D5E" stroke-width="3"/>
  <ellipse cx="145" cy="115" rx="16" ry="12" fill="#fff" stroke="#1B4D5E" stroke-width="3"/>
  <circle cx="95" cy="117" r="6" fill="#1B4D5E"/>
  <circle cx="145" cy="117" r="6" fill="#1B4D5E"/>
  <path d="M88,150 C120,168 152,150 152,150" fill="none" stroke="#1B4D5E" stroke-width="4" stroke-linecap="round"/>
  <ellipse cx="120" cy="200" rx="32" ry="18" fill="#9EDCEB" stroke="#1B4D5E" stroke-width="3"/>
</svg>
